solid OpenSCAD_Model
  facet normal -1 0 0
    outer loop
      vertex -6 6 0
      vertex -6 5 2
      vertex -6 6 3
    endloop
  endfacet
  facet normal -1 0 0
    outer loop
      vertex -6 6 0
      vertex -6 1 2
      vertex -6 5 2
    endloop
  endfacet
  facet normal -1 0 0
    outer loop
      vertex -6 0 0
      vertex -6 1 2
      vertex -6 6 0
    endloop
  endfacet
  facet normal -1 0 0
    outer loop
      vertex -6 0 3
      vertex -6 1 2
      vertex -6 0 0
    endloop
  endfacet
  facet normal -1 0 0
    outer loop
      vertex -6 1 2
      vertex -6 0 3
      vertex -6 1 3
    endloop
  endfacet
  facet normal -1 -0 0
    outer loop
      vertex -6 6 3
      vertex -6 5 2
      vertex -6 5 3
    endloop
  endfacet
  facet normal -0 0 1
    outer loop
      vertex -6 1 3
      vertex 0 0 3
      vertex 0 1 3
    endloop
  endfacet
  facet normal 0 0 1
    outer loop
      vertex 0 0 3
      vertex -6 1 3
      vertex -6 0 3
    endloop
  endfacet
  facet normal -0 0 1
    outer loop
      vertex -6 6 3
      vertex 0 5 3
      vertex 0 6 3
    endloop
  endfacet
  facet normal 0 0 1
    outer loop
      vertex 0 5 3
      vertex -6 6 3
      vertex -6 5 3
    endloop
  endfacet
  facet normal -1 0 0
    outer loop
      vertex 0 2 1
      vertex 0 1 1
      vertex 0 2 2
    endloop
  endfacet
  facet normal -1 0 0
    outer loop
      vertex 0 3 2
      vertex 0 5 1
      vertex 0 3 1
    endloop
  endfacet
  facet normal -1 0 0
    outer loop
      vertex 0 6 3
      vertex 0 92.5 0
      vertex 0 6 0
    endloop
  endfacet
  facet normal -1 0 0
    outer loop
      vertex 0 92.5 0
      vertex 0 6 3
      vertex 0 92.5 4
    endloop
  endfacet
  facet normal -1 0 0
    outer loop
      vertex 0 0 4
      vertex 0 6 3
      vertex 0 5 3
    endloop
  endfacet
  facet normal -1 0 0
    outer loop
      vertex 0 5 1
      vertex 0 3 2
      vertex 0 5 3
    endloop
  endfacet
  facet normal -1 0 0
    outer loop
      vertex 0 1 3
      vertex 0 3 2
      vertex 0 2 2
    endloop
  endfacet
  facet normal -1 0 0
    outer loop
      vertex 0 1 3
      vertex 0 2 2
      vertex 0 1 1
    endloop
  endfacet
  facet normal -1 0 0
    outer loop
      vertex 0 3 2
      vertex 0 1 3
      vertex 0 5 3
    endloop
  endfacet
  facet normal -1 0 0
    outer loop
      vertex 0 0 4
      vertex 0 5 3
      vertex 0 1 3
    endloop
  endfacet
  facet normal -1 0 0
    outer loop
      vertex 0 0 4
      vertex 0 1 3
      vertex 0 0 3
    endloop
  endfacet
  facet normal -1 0 0
    outer loop
      vertex 0 6 3
      vertex 0 0 4
      vertex 0 92.5 4
    endloop
  endfacet
  facet normal 0 0 -1
    outer loop
      vertex 215 0 0
      vertex 209 6 0
      vertex 215 6 0
    endloop
  endfacet
  facet normal 0 0 -1
    outer loop
      vertex 209 6 0
      vertex 0 6 0
      vertex 209 92.5 0
    endloop
  endfacet
  facet normal 0 0 -1
    outer loop
      vertex 215 0 0
      vertex 0 6 0
      vertex 209 6 0
    endloop
  endfacet
  facet normal 0 0 -1
    outer loop
      vertex -6 0 0
      vertex 0 6 0
      vertex 215 0 0
    endloop
  endfacet
  facet normal -0 0 -1
    outer loop
      vertex 0 6 0
      vertex -6 0 0
      vertex -6 6 0
    endloop
  endfacet
  facet normal -0 0 -1
    outer loop
      vertex 209 92.5 0
      vertex 0 6 0
      vertex 0 92.5 0
    endloop
  endfacet
  facet normal 0 -1 0
    outer loop
      vertex -6 0 0
      vertex 0 0 3
      vertex -6 0 3
    endloop
  endfacet
  facet normal 0 -1 -0
    outer loop
      vertex 0 0 3
      vertex -6 0 0
      vertex 209 0 3
    endloop
  endfacet
  facet normal 0 -1 0
    outer loop
      vertex 215 0 0
      vertex 209 0 3
      vertex -6 0 0
    endloop
  endfacet
  facet normal 0 -1 0
    outer loop
      vertex 209 0 3
      vertex 215 0 0
      vertex 215 0 3
    endloop
  endfacet
  facet normal 0 -1 0
    outer loop
      vertex 0 0 3
      vertex 209 0 4
      vertex 0 0 4
    endloop
  endfacet
  facet normal 0 -1 -0
    outer loop
      vertex 209 0 4
      vertex 0 0 3
      vertex 209 0 3
    endloop
  endfacet
  facet normal 0 1 -0
    outer loop
      vertex 0 6 0
      vertex -6 6 3
      vertex 0 6 3
    endloop
  endfacet
  facet normal 0 1 0
    outer loop
      vertex -6 6 3
      vertex 0 6 0
      vertex -6 6 0
    endloop
  endfacet
  facet normal 1 -0 0
    outer loop
      vertex -5 1 2
      vertex -5 5 1
      vertex -5 5 2
    endloop
  endfacet
  facet normal 1 0 0
    outer loop
      vertex -5 5 1
      vertex -5 1 2
      vertex -5 1 1
    endloop
  endfacet
  facet normal 0 -1 0
    outer loop
      vertex -5 5 2
      vertex -6 5 3
      vertex -6 5 2
    endloop
  endfacet
  facet normal 0 -1 0
    outer loop
      vertex -6 5 3
      vertex -5 5 2
      vertex 0 5 3
    endloop
  endfacet
  facet normal 0 -1 0
    outer loop
      vertex 0 5 1
      vertex -5 5 2
      vertex -5 5 1
    endloop
  endfacet
  facet normal 0 -1 0
    outer loop
      vertex -5 5 2
      vertex 0 5 1
      vertex 0 5 3
    endloop
  endfacet
  facet normal -0 0 1
    outer loop
      vertex -5 5 1
      vertex 0 3 1
      vertex 0 5 1
    endloop
  endfacet
  facet normal 0 0 1
    outer loop
      vertex -5 1 1
      vertex 0 3 1
      vertex -5 5 1
    endloop
  endfacet
  facet normal 0 0 1
    outer loop
      vertex 0 3 1
      vertex -5 1 1
      vertex 0 2 1
    endloop
  endfacet
  facet normal 0 0 1
    outer loop
      vertex 0 2 1
      vertex -5 1 1
      vertex 0 1 1
    endloop
  endfacet
  facet normal -0 0 1
    outer loop
      vertex 0 3 1
      vertex 1 2 1
      vertex 1 3 1
    endloop
  endfacet
  facet normal 0 0 1
    outer loop
      vertex 1 2 1
      vertex 0 3 1
      vertex 0 2 1
    endloop
  endfacet
  facet normal 0 0 1
    outer loop
      vertex 1 3 1
      vertex 2 92.5 1
      vertex 1 92.5 1
    endloop
  endfacet
  facet normal 0 0 1
    outer loop
      vertex 2 92.5 1
      vertex 1 3 1
      vertex 2 1 1
    endloop
  endfacet
  facet normal -0 0 1
    outer loop
      vertex 1 2 1
      vertex 2 1 1
      vertex 1 3 1
    endloop
  endfacet
  facet normal 0 0 1
    outer loop
      vertex 2 1 1
      vertex 1 2 1
      vertex 1 1 1
    endloop
  endfacet
  facet normal 0 1 0
    outer loop
      vertex 0 1 3
      vertex -5 1 2
      vertex -6 1 3
    endloop
  endfacet
  facet normal 0 1 -0
    outer loop
      vertex 0 1 1
      vertex -5 1 2
      vertex 0 1 3
    endloop
  endfacet
  facet normal 0 1 0
    outer loop
      vertex -5 1 2
      vertex 0 1 1
      vertex -5 1 1
    endloop
  endfacet
  facet normal 0 1 0
    outer loop
      vertex -6 1 3
      vertex -5 1 2
      vertex -6 1 2
    endloop
  endfacet
  facet normal -0 0 1
    outer loop
      vertex -6 5 2
      vertex -5 1 2
      vertex -5 5 2
    endloop
  endfacet
  facet normal 0 0 1
    outer loop
      vertex -5 1 2
      vertex -6 5 2
      vertex -6 1 2
    endloop
  endfacet
  facet normal 1 0 0
    outer loop
      vertex 209 92.5 4
      vertex 209 6 3
      vertex 209 92.5 0
    endloop
  endfacet
  facet normal 1 -0 0
    outer loop
      vertex 209 0 4
      vertex 209 6 3
      vertex 209 92.5 4
    endloop
  endfacet
  facet normal 1 0 0
    outer loop
      vertex 209 5 3
      vertex 209 3 2
      vertex 209 5 1
    endloop
  endfacet
  facet normal 1 -0 0
    outer loop
      vertex 209 1 3
      vertex 209 3 2
      vertex 209 5 3
    endloop
  endfacet
  facet normal 1 0 0
    outer loop
      vertex 209 1 1
      vertex 209 2 2
      vertex 209 1 3
    endloop
  endfacet
  facet normal 1 0 0
    outer loop
      vertex 209 3 2
      vertex 209 1 3
      vertex 209 2 2
    endloop
  endfacet
  facet normal 1 0 0
    outer loop
      vertex 209 6 3
      vertex 209 0 4
      vertex 209 5 3
    endloop
  endfacet
  facet normal 1 0 0
    outer loop
      vertex 209 5 3
      vertex 209 0 4
      vertex 209 1 3
    endloop
  endfacet
  facet normal 1 0 0
    outer loop
      vertex 209 1 3
      vertex 209 0 4
      vertex 209 0 3
    endloop
  endfacet
  facet normal 1 0 0
    outer loop
      vertex 209 92.5 0
      vertex 209 6 3
      vertex 209 6 0
    endloop
  endfacet
  facet normal 1 0 0
    outer loop
      vertex 209 5 1
      vertex 209 3 2
      vertex 209 3 1
    endloop
  endfacet
  facet normal 1 0 0
    outer loop
      vertex 209 2 2
      vertex 209 1 1
      vertex 209 2 1
    endloop
  endfacet
  facet normal -0 0 1
    outer loop
      vertex 209 1 3
      vertex 215 0 3
      vertex 215 1 3
    endloop
  endfacet
  facet normal 0 0 1
    outer loop
      vertex 215 0 3
      vertex 209 1 3
      vertex 209 0 3
    endloop
  endfacet
  facet normal -0 0 1
    outer loop
      vertex 209 6 3
      vertex 215 5 3
      vertex 215 6 3
    endloop
  endfacet
  facet normal 0 0 1
    outer loop
      vertex 215 5 3
      vertex 209 6 3
      vertex 209 5 3
    endloop
  endfacet
  facet normal 1 0 0
    outer loop
      vertex 215 1 3
      vertex 215 0 3
      vertex 215 1 2
    endloop
  endfacet
  facet normal 1 0 0
    outer loop
      vertex 215 5 2
      vertex 215 6 3
      vertex 215 5 3
    endloop
  endfacet
  facet normal 1 0 0
    outer loop
      vertex 215 6 3
      vertex 215 5 2
      vertex 215 6 0
    endloop
  endfacet
  facet normal 1 -0 0
    outer loop
      vertex 215 1 2
      vertex 215 6 0
      vertex 215 5 2
    endloop
  endfacet
  facet normal 1 0 0
    outer loop
      vertex 215 1 2
      vertex 215 0 0
      vertex 215 6 0
    endloop
  endfacet
  facet normal 1 0 0
    outer loop
      vertex 215 0 0
      vertex 215 1 2
      vertex 215 0 3
    endloop
  endfacet
  facet normal 0 1 -0
    outer loop
      vertex 215 6 0
      vertex 209 6 3
      vertex 215 6 3
    endloop
  endfacet
  facet normal 0 1 0
    outer loop
      vertex 209 6 3
      vertex 215 6 0
      vertex 209 6 0
    endloop
  endfacet
  facet normal -1 0 0
    outer loop
      vertex 214 1 1
      vertex 214 5 2
      vertex 214 5 1
    endloop
  endfacet
  facet normal -1 -0 0
    outer loop
      vertex 214 5 2
      vertex 214 1 1
      vertex 214 1 2
    endloop
  endfacet
  facet normal -0 0 1
    outer loop
      vertex 207 92.5 1
      vertex 208 3 1
      vertex 208 92.5 1
    endloop
  endfacet
  facet normal 0 0 1
    outer loop
      vertex 207 1 1
      vertex 208 3 1
      vertex 207 92.5 1
    endloop
  endfacet
  facet normal 0 0 1
    outer loop
      vertex 208 3 1
      vertex 207 1 1
      vertex 208 2 1
    endloop
  endfacet
  facet normal 0 0 1
    outer loop
      vertex 208 2 1
      vertex 207 1 1
      vertex 208 1 1
    endloop
  endfacet
  facet normal -0 0 1
    outer loop
      vertex 208 3 1
      vertex 209 2 1
      vertex 209 3 1
    endloop
  endfacet
  facet normal 0 0 1
    outer loop
      vertex 209 2 1
      vertex 208 3 1
      vertex 208 2 1
    endloop
  endfacet
  facet normal 0 0 1
    outer loop
      vertex 209 3 1
      vertex 214 5 1
      vertex 209 5 1
    endloop
  endfacet
  facet normal 0 0 1
    outer loop
      vertex 214 5 1
      vertex 209 3 1
      vertex 214 1 1
    endloop
  endfacet
  facet normal -0 0 1
    outer loop
      vertex 209 2 1
      vertex 214 1 1
      vertex 209 3 1
    endloop
  endfacet
  facet normal 0 0 1
    outer loop
      vertex 214 1 1
      vertex 209 2 1
      vertex 209 1 1
    endloop
  endfacet
  facet normal 0 1 0
    outer loop
      vertex 214 1 2
      vertex 215 1 3
      vertex 215 1 2
    endloop
  endfacet
  facet normal 0 1 0
    outer loop
      vertex 215 1 3
      vertex 214 1 2
      vertex 209 1 3
    endloop
  endfacet
  facet normal 0 1 0
    outer loop
      vertex 209 1 1
      vertex 214 1 2
      vertex 214 1 1
    endloop
  endfacet
  facet normal 0 1 0
    outer loop
      vertex 214 1 2
      vertex 209 1 1
      vertex 209 1 3
    endloop
  endfacet
  facet normal 0 -1 0
    outer loop
      vertex 209 5 3
      vertex 214 5 2
      vertex 215 5 3
    endloop
  endfacet
  facet normal 0 -1 0
    outer loop
      vertex 209 5 1
      vertex 214 5 2
      vertex 209 5 3
    endloop
  endfacet
  facet normal 0 -1 -0
    outer loop
      vertex 214 5 2
      vertex 209 5 1
      vertex 214 5 1
    endloop
  endfacet
  facet normal 0 -1 -0
    outer loop
      vertex 215 5 3
      vertex 214 5 2
      vertex 215 5 2
    endloop
  endfacet
  facet normal -0 0 1
    outer loop
      vertex 214 5 2
      vertex 215 1 2
      vertex 215 5 2
    endloop
  endfacet
  facet normal 0 0 1
    outer loop
      vertex 215 1 2
      vertex 214 5 2
      vertex 214 1 2
    endloop
  endfacet
  facet normal 0 0 1
    outer loop
      vertex 1 92.5 4
      vertex 0 92.5 4
      vertex 1 1 4
    endloop
  endfacet
  facet normal 0 0 1
    outer loop
      vertex 207 92.5 4
      vertex 2 92.5 4
      vertex 207 1 4
    endloop
  endfacet
  facet normal 0 0 1
    outer loop
      vertex 208 1 4
      vertex 209 92.5 4
      vertex 208 92.5 4
    endloop
  endfacet
  facet normal 0 0 1
    outer loop
      vertex 209 92.5 4
      vertex 208 1 4
      vertex 209 0 4
    endloop
  endfacet
  facet normal -0 0 1
    outer loop
      vertex 207 1 4
      vertex 209 0 4
      vertex 208 1 4
    endloop
  endfacet
  facet normal 0 0 1
    outer loop
      vertex 2 1 4
      vertex 207 1 4
      vertex 2 92.5 4
    endloop
  endfacet
  facet normal 0 0 1
    outer loop
      vertex 207 1 4
      vertex 2 1 4
      vertex 209 0 4
    endloop
  endfacet
  facet normal 0 0 1
    outer loop
      vertex 0 0 4
      vertex 2 1 4
      vertex 1 1 4
    endloop
  endfacet
  facet normal 0 0 1
    outer loop
      vertex 2 1 4
      vertex 0 0 4
      vertex 209 0 4
    endloop
  endfacet
  facet normal 0 0 1
    outer loop
      vertex 0 0 4
      vertex 1 1 4
      vertex 0 92.5 4
    endloop
  endfacet
  facet normal 0 1 0
    outer loop
      vertex 209 92.5 4
      vertex 208 92.5 1
      vertex 208 92.5 4
    endloop
  endfacet
  facet normal 0 1 0
    outer loop
      vertex 209 92.5 0
      vertex 207 92.5 1
      vertex 208 92.5 1
    endloop
  endfacet
  facet normal 0 1 0
    outer loop
      vertex 207 92.5 1
      vertex 209 92.5 0
      vertex 2 92.5 1
    endloop
  endfacet
  facet normal 0 1 0
    outer loop
      vertex 0 92.5 0
      vertex 2 92.5 1
      vertex 209 92.5 0
    endloop
  endfacet
  facet normal 0 1 -0
    outer loop
      vertex 209 92.5 0
      vertex 208 92.5 1
      vertex 209 92.5 4
    endloop
  endfacet
  facet normal 0 1 -0
    outer loop
      vertex 207 92.5 1
      vertex 2 92.5 4
      vertex 207 92.5 4
    endloop
  endfacet
  facet normal 0 1 0
    outer loop
      vertex 2 92.5 4
      vertex 207 92.5 1
      vertex 2 92.5 1
    endloop
  endfacet
  facet normal 0 1 -0
    outer loop
      vertex 1 92.5 1
      vertex 0 92.5 4
      vertex 1 92.5 4
    endloop
  endfacet
  facet normal 0 1 0
    outer loop
      vertex 1 92.5 1
      vertex 0 92.5 0
      vertex 0 92.5 4
    endloop
  endfacet
  facet normal 0 1 0
    outer loop
      vertex 2 92.5 1
      vertex 0 92.5 0
      vertex 1 92.5 1
    endloop
  endfacet
  facet normal 1 0 0
    outer loop
      vertex 1 92.5 4
      vertex 1 3 2
      vertex 1 92.5 1
    endloop
  endfacet
  facet normal 1 -0 0
    outer loop
      vertex 1 1 4
      vertex 1 3 2
      vertex 1 92.5 4
    endloop
  endfacet
  facet normal 1 0 0
    outer loop
      vertex 1 3 2
      vertex 1 1 4
      vertex 1 2 2
    endloop
  endfacet
  facet normal 1 0 0
    outer loop
      vertex 1 1 1
      vertex 1 2 2
      vertex 1 1 4
    endloop
  endfacet
  facet normal 1 0 0
    outer loop
      vertex 1 2 2
      vertex 1 1 1
      vertex 1 2 1
    endloop
  endfacet
  facet normal 1 0 0
    outer loop
      vertex 1 92.5 1
      vertex 1 3 2
      vertex 1 3 1
    endloop
  endfacet
  facet normal -1 0 0
    outer loop
      vertex 2 1 1
      vertex 2 92.5 4
      vertex 2 92.5 1
    endloop
  endfacet
  facet normal -1 -0 0
    outer loop
      vertex 2 92.5 4
      vertex 2 1 1
      vertex 2 1 4
    endloop
  endfacet
  facet normal 0 1 -0
    outer loop
      vertex 2 1 1
      vertex 1 1 4
      vertex 2 1 4
    endloop
  endfacet
  facet normal 0 1 0
    outer loop
      vertex 1 1 4
      vertex 2 1 1
      vertex 1 1 1
    endloop
  endfacet
  facet normal 0 0 -1
    outer loop
      vertex 0 2 2
      vertex 1 3 2
      vertex 1 2 2
    endloop
  endfacet
  facet normal -0 0 -1
    outer loop
      vertex 1 3 2
      vertex 0 2 2
      vertex 0 3 2
    endloop
  endfacet
  facet normal 0 -1 0
    outer loop
      vertex 0 3 1
      vertex 1 3 2
      vertex 0 3 2
    endloop
  endfacet
  facet normal 0 -1 -0
    outer loop
      vertex 1 3 2
      vertex 0 3 1
      vertex 1 3 1
    endloop
  endfacet
  facet normal 0 1 -0
    outer loop
      vertex 1 2 1
      vertex 0 2 2
      vertex 1 2 2
    endloop
  endfacet
  facet normal 0 1 0
    outer loop
      vertex 0 2 2
      vertex 1 2 1
      vertex 0 2 1
    endloop
  endfacet
  facet normal 1 -0 0
    outer loop
      vertex 207 1 4
      vertex 207 92.5 1
      vertex 207 92.5 4
    endloop
  endfacet
  facet normal 1 0 0
    outer loop
      vertex 207 92.5 1
      vertex 207 1 4
      vertex 207 1 1
    endloop
  endfacet
  facet normal -1 0 0
    outer loop
      vertex 208 2 1
      vertex 208 1 1
      vertex 208 2 2
    endloop
  endfacet
  facet normal -1 0 0
    outer loop
      vertex 208 3 2
      vertex 208 92.5 1
      vertex 208 3 1
    endloop
  endfacet
  facet normal -1 0 0
    outer loop
      vertex 208 92.5 1
      vertex 208 3 2
      vertex 208 92.5 4
    endloop
  endfacet
  facet normal -1 0 0
    outer loop
      vertex 208 1 4
      vertex 208 3 2
      vertex 208 2 2
    endloop
  endfacet
  facet normal -1 0 0
    outer loop
      vertex 208 3 2
      vertex 208 1 4
      vertex 208 92.5 4
    endloop
  endfacet
  facet normal -1 0 0
    outer loop
      vertex 208 1 4
      vertex 208 2 2
      vertex 208 1 1
    endloop
  endfacet
  facet normal 0 1 -0
    outer loop
      vertex 208 1 1
      vertex 207 1 4
      vertex 208 1 4
    endloop
  endfacet
  facet normal 0 1 0
    outer loop
      vertex 207 1 4
      vertex 208 1 1
      vertex 207 1 1
    endloop
  endfacet
  facet normal 0 0 -1
    outer loop
      vertex 208 2 2
      vertex 209 3 2
      vertex 209 2 2
    endloop
  endfacet
  facet normal -0 0 -1
    outer loop
      vertex 209 3 2
      vertex 208 2 2
      vertex 208 3 2
    endloop
  endfacet
  facet normal 0 1 -0
    outer loop
      vertex 209 2 1
      vertex 208 2 2
      vertex 209 2 2
    endloop
  endfacet
  facet normal 0 1 0
    outer loop
      vertex 208 2 2
      vertex 209 2 1
      vertex 208 2 1
    endloop
  endfacet
  facet normal 0 -1 0
    outer loop
      vertex 208 3 1
      vertex 209 3 2
      vertex 208 3 2
    endloop
  endfacet
  facet normal 0 -1 -0
    outer loop
      vertex 209 3 2
      vertex 208 3 1
      vertex 209 3 1
    endloop
  endfacet
endsolid OpenSCAD_Model
