solid OpenSCAD_Model
  facet normal -1 0 0
    outer loop
      vertex -6 6 0
      vertex -6 5 2
      vertex -6 6 3
    endloop
  endfacet
  facet normal -1 0 0
    outer loop
      vertex -6 6 0
      vertex -6 1 2
      vertex -6 5 2
    endloop
  endfacet
  facet normal -1 0 0
    outer loop
      vertex -6 0 0
      vertex -6 1 2
      vertex -6 6 0
    endloop
  endfacet
  facet normal -1 0 0
    outer loop
      vertex -6 0 3
      vertex -6 1 2
      vertex -6 0 0
    endloop
  endfacet
  facet normal -1 0 0
    outer loop
      vertex -6 1 2
      vertex -6 0 3
      vertex -6 1 3
    endloop
  endfacet
  facet normal -1 -0 0
    outer loop
      vertex -6 6 3
      vertex -6 5 2
      vertex -6 5 3
    endloop
  endfacet
  facet normal -0 0 1
    outer loop
      vertex -6 1 3
      vertex 0 0 3
      vertex 0 1 3
    endloop
  endfacet
  facet normal 0 0 1
    outer loop
      vertex 0 0 3
      vertex -6 1 3
      vertex -6 0 3
    endloop
  endfacet
  facet normal -0 0 1
    outer loop
      vertex -6 6 3
      vertex 0 5 3
      vertex 0 6 3
    endloop
  endfacet
  facet normal 0 0 1
    outer loop
      vertex 0 5 3
      vertex -6 6 3
      vertex -6 5 3
    endloop
  endfacet
  facet normal -1 0 0
    outer loop
      vertex 0 2 1
      vertex 0 1 1
      vertex 0 2 3
    endloop
  endfacet
  facet normal -1 0 0
    outer loop
      vertex 0 5 1
      vertex 0 4 1
      vertex 0 5 3
    endloop
  endfacet
  facet normal -1 0 0
    outer loop
      vertex 0 6 3
      vertex 0 64.9 0
      vertex 0 6 0
    endloop
  endfacet
  facet normal -1 0 0
    outer loop
      vertex 0 64.9 0
      vertex 0 6 3
      vertex 0 64.9 4
    endloop
  endfacet
  facet normal -1 0 0
    outer loop
      vertex 0 0 4
      vertex 0 6 3
      vertex 0 5 3
    endloop
  endfacet
  facet normal -1 0 0
    outer loop
      vertex 0 4 3
      vertex 0 5 3
      vertex 0 4 1
    endloop
  endfacet
  facet normal -1 0 0
    outer loop
      vertex 0 0 4
      vertex 0 5 3
      vertex 0 4 3
    endloop
  endfacet
  facet normal -1 0 0
    outer loop
      vertex 0 0 4
      vertex 0 4 3
      vertex 0 2 3
    endloop
  endfacet
  facet normal -1 0 0
    outer loop
      vertex 0 1 3
      vertex 0 2 3
      vertex 0 1 1
    endloop
  endfacet
  facet normal -1 0 0
    outer loop
      vertex 0 0 4
      vertex 0 2 3
      vertex 0 1 3
    endloop
  endfacet
  facet normal -1 0 0
    outer loop
      vertex 0 0 4
      vertex 0 1 3
      vertex 0 0 3
    endloop
  endfacet
  facet normal -1 0 0
    outer loop
      vertex 0 6 3
      vertex 0 0 4
      vertex 0 64.9 4
    endloop
  endfacet
  facet normal 0 1 -0
    outer loop
      vertex 0 6 0
      vertex -6 6 3
      vertex 0 6 3
    endloop
  endfacet
  facet normal 0 1 0
    outer loop
      vertex -6 6 3
      vertex 0 6 0
      vertex -6 6 0
    endloop
  endfacet
  facet normal 0 0 -1
    outer loop
      vertex 215 0 0
      vertex 209 6 0
      vertex 215 6 0
    endloop
  endfacet
  facet normal 0 0 -1
    outer loop
      vertex 209 6 0
      vertex 0 6 0
      vertex 209 64.9 0
    endloop
  endfacet
  facet normal 0 0 -1
    outer loop
      vertex 215 0 0
      vertex 0 6 0
      vertex 209 6 0
    endloop
  endfacet
  facet normal 0 0 -1
    outer loop
      vertex -6 0 0
      vertex 0 6 0
      vertex 215 0 0
    endloop
  endfacet
  facet normal -0 0 -1
    outer loop
      vertex 0 6 0
      vertex -6 0 0
      vertex -6 6 0
    endloop
  endfacet
  facet normal -0 0 -1
    outer loop
      vertex 209 64.9 0
      vertex 0 6 0
      vertex 0 64.9 0
    endloop
  endfacet
  facet normal 0 -1 0
    outer loop
      vertex -6 0 0
      vertex 0 0 3
      vertex -6 0 3
    endloop
  endfacet
  facet normal 0 -1 -0
    outer loop
      vertex 0 0 3
      vertex -6 0 0
      vertex 209 0 3
    endloop
  endfacet
  facet normal 0 -1 0
    outer loop
      vertex 215 0 0
      vertex 209 0 3
      vertex -6 0 0
    endloop
  endfacet
  facet normal 0 -1 0
    outer loop
      vertex 209 0 3
      vertex 215 0 0
      vertex 215 0 3
    endloop
  endfacet
  facet normal 0 -1 0
    outer loop
      vertex 0 0 3
      vertex 209 0 4
      vertex 0 0 4
    endloop
  endfacet
  facet normal 0 -1 -0
    outer loop
      vertex 209 0 4
      vertex 0 0 3
      vertex 209 0 3
    endloop
  endfacet
  facet normal 1 -0 0
    outer loop
      vertex -5 1 2
      vertex -5 5 1
      vertex -5 5 2
    endloop
  endfacet
  facet normal 1 0 0
    outer loop
      vertex -5 5 1
      vertex -5 1 2
      vertex -5 1 1
    endloop
  endfacet
  facet normal -0 0 1
    outer loop
      vertex -5 5 1
      vertex 0 4 1
      vertex 0 5 1
    endloop
  endfacet
  facet normal 0 0 1
    outer loop
      vertex 0 4 1
      vertex -5 5 1
      vertex 0 2 1
    endloop
  endfacet
  facet normal 0 0 1
    outer loop
      vertex -5 1 1
      vertex 0 2 1
      vertex -5 5 1
    endloop
  endfacet
  facet normal 0 0 1
    outer loop
      vertex 0 2 1
      vertex -5 1 1
      vertex 0 1 1
    endloop
  endfacet
  facet normal -0 0 1
    outer loop
      vertex 0 4 1
      vertex 1 2 1
      vertex 1 4 1
    endloop
  endfacet
  facet normal 0 0 1
    outer loop
      vertex 1 2 1
      vertex 0 4 1
      vertex 0 2 1
    endloop
  endfacet
  facet normal 0 0 1
    outer loop
      vertex 1 4 1
      vertex 3 64.9 1
      vertex 1 64.9 1
    endloop
  endfacet
  facet normal 0 0 1
    outer loop
      vertex 3 64.9 1
      vertex 1 4 1
      vertex 3 1 1
    endloop
  endfacet
  facet normal -0 0 1
    outer loop
      vertex 1 2 1
      vertex 3 1 1
      vertex 1 4 1
    endloop
  endfacet
  facet normal 0 0 1
    outer loop
      vertex 3 1 1
      vertex 1 2 1
      vertex 1 1 1
    endloop
  endfacet
  facet normal 0 1 0
    outer loop
      vertex 0 1 3
      vertex -5 1 2
      vertex -6 1 3
    endloop
  endfacet
  facet normal 0 1 -0
    outer loop
      vertex 0 1 1
      vertex -5 1 2
      vertex 0 1 3
    endloop
  endfacet
  facet normal 0 1 0
    outer loop
      vertex -5 1 2
      vertex 0 1 1
      vertex -5 1 1
    endloop
  endfacet
  facet normal 0 1 0
    outer loop
      vertex -6 1 3
      vertex -5 1 2
      vertex -6 1 2
    endloop
  endfacet
  facet normal 0 -1 0
    outer loop
      vertex -5 5 2
      vertex -6 5 3
      vertex -6 5 2
    endloop
  endfacet
  facet normal 0 -1 0
    outer loop
      vertex -6 5 3
      vertex -5 5 2
      vertex 0 5 3
    endloop
  endfacet
  facet normal 0 -1 0
    outer loop
      vertex 0 5 1
      vertex -5 5 2
      vertex -5 5 1
    endloop
  endfacet
  facet normal 0 -1 0
    outer loop
      vertex -5 5 2
      vertex 0 5 1
      vertex 0 5 3
    endloop
  endfacet
  facet normal -0 0 1
    outer loop
      vertex -6 5 2
      vertex -5 1 2
      vertex -5 5 2
    endloop
  endfacet
  facet normal 0 0 1
    outer loop
      vertex -5 1 2
      vertex -6 5 2
      vertex -6 1 2
    endloop
  endfacet
  facet normal 1 0 0
    outer loop
      vertex 209 64.9 4
      vertex 209 6 3
      vertex 209 64.9 0
    endloop
  endfacet
  facet normal 1 -0 0
    outer loop
      vertex 209 0 4
      vertex 209 6 3
      vertex 209 64.9 4
    endloop
  endfacet
  facet normal 1 0 0
    outer loop
      vertex 209 5 3
      vertex 209 4 3
      vertex 209 5 1
    endloop
  endfacet
  facet normal 1 0 0
    outer loop
      vertex 209 6 3
      vertex 209 0 4
      vertex 209 5 3
    endloop
  endfacet
  facet normal 1 0 0
    outer loop
      vertex 209 5 3
      vertex 209 0 4
      vertex 209 4 3
    endloop
  endfacet
  facet normal 1 0 0
    outer loop
      vertex 209 2 3
      vertex 209 1 3
      vertex 209 2 1
    endloop
  endfacet
  facet normal 1 0 0
    outer loop
      vertex 209 4 3
      vertex 209 0 4
      vertex 209 2 3
    endloop
  endfacet
  facet normal 1 0 0
    outer loop
      vertex 209 2 3
      vertex 209 0 4
      vertex 209 1 3
    endloop
  endfacet
  facet normal 1 0 0
    outer loop
      vertex 209 1 3
      vertex 209 0 4
      vertex 209 0 3
    endloop
  endfacet
  facet normal 1 0 0
    outer loop
      vertex 209 64.9 0
      vertex 209 6 3
      vertex 209 6 0
    endloop
  endfacet
  facet normal 1 0 0
    outer loop
      vertex 209 5 1
      vertex 209 4 3
      vertex 209 4 1
    endloop
  endfacet
  facet normal 1 0 0
    outer loop
      vertex 209 2 1
      vertex 209 1 3
      vertex 209 1 1
    endloop
  endfacet
  facet normal -0 0 1
    outer loop
      vertex 209 1 3
      vertex 215 0 3
      vertex 215 1 3
    endloop
  endfacet
  facet normal 0 0 1
    outer loop
      vertex 215 0 3
      vertex 209 1 3
      vertex 209 0 3
    endloop
  endfacet
  facet normal -0 0 1
    outer loop
      vertex 209 6 3
      vertex 215 5 3
      vertex 215 6 3
    endloop
  endfacet
  facet normal 0 0 1
    outer loop
      vertex 215 5 3
      vertex 209 6 3
      vertex 209 5 3
    endloop
  endfacet
  facet normal 1 0 0
    outer loop
      vertex 215 1 3
      vertex 215 0 3
      vertex 215 1 2
    endloop
  endfacet
  facet normal 1 0 0
    outer loop
      vertex 215 5 2
      vertex 215 6 3
      vertex 215 5 3
    endloop
  endfacet
  facet normal 1 0 0
    outer loop
      vertex 215 6 3
      vertex 215 5 2
      vertex 215 6 0
    endloop
  endfacet
  facet normal 1 -0 0
    outer loop
      vertex 215 1 2
      vertex 215 6 0
      vertex 215 5 2
    endloop
  endfacet
  facet normal 1 0 0
    outer loop
      vertex 215 1 2
      vertex 215 0 0
      vertex 215 6 0
    endloop
  endfacet
  facet normal 1 0 0
    outer loop
      vertex 215 0 0
      vertex 215 1 2
      vertex 215 0 3
    endloop
  endfacet
  facet normal 0 1 -0
    outer loop
      vertex 215 6 0
      vertex 209 6 3
      vertex 215 6 3
    endloop
  endfacet
  facet normal 0 1 0
    outer loop
      vertex 209 6 3
      vertex 215 6 0
      vertex 209 6 0
    endloop
  endfacet
  facet normal -1 0 0
    outer loop
      vertex 214 1 1
      vertex 214 5 2
      vertex 214 5 1
    endloop
  endfacet
  facet normal -1 -0 0
    outer loop
      vertex 214 5 2
      vertex 214 1 1
      vertex 214 1 2
    endloop
  endfacet
  facet normal 0 -1 0
    outer loop
      vertex 209 5 3
      vertex 214 5 2
      vertex 215 5 3
    endloop
  endfacet
  facet normal 0 -1 0
    outer loop
      vertex 209 5 1
      vertex 214 5 2
      vertex 209 5 3
    endloop
  endfacet
  facet normal 0 -1 -0
    outer loop
      vertex 214 5 2
      vertex 209 5 1
      vertex 214 5 1
    endloop
  endfacet
  facet normal 0 -1 -0
    outer loop
      vertex 215 5 3
      vertex 214 5 2
      vertex 215 5 2
    endloop
  endfacet
  facet normal -0 0 1
    outer loop
      vertex 206 64.9 1
      vertex 208 4 1
      vertex 208 64.9 1
    endloop
  endfacet
  facet normal 0 0 1
    outer loop
      vertex 206 1 1
      vertex 208 4 1
      vertex 206 64.9 1
    endloop
  endfacet
  facet normal 0 0 1
    outer loop
      vertex 208 4 1
      vertex 206 1 1
      vertex 208 2 1
    endloop
  endfacet
  facet normal 0 0 1
    outer loop
      vertex 208 2 1
      vertex 206 1 1
      vertex 208 1 1
    endloop
  endfacet
  facet normal -0 0 1
    outer loop
      vertex 208 4 1
      vertex 209 2 1
      vertex 209 4 1
    endloop
  endfacet
  facet normal 0 0 1
    outer loop
      vertex 209 2 1
      vertex 208 4 1
      vertex 208 2 1
    endloop
  endfacet
  facet normal 0 0 1
    outer loop
      vertex 209 4 1
      vertex 214 5 1
      vertex 209 5 1
    endloop
  endfacet
  facet normal 0 0 1
    outer loop
      vertex 214 5 1
      vertex 209 4 1
      vertex 214 1 1
    endloop
  endfacet
  facet normal -0 0 1
    outer loop
      vertex 209 2 1
      vertex 214 1 1
      vertex 209 4 1
    endloop
  endfacet
  facet normal 0 0 1
    outer loop
      vertex 214 1 1
      vertex 209 2 1
      vertex 209 1 1
    endloop
  endfacet
  facet normal 0 1 0
    outer loop
      vertex 214 1 2
      vertex 215 1 3
      vertex 215 1 2
    endloop
  endfacet
  facet normal 0 1 0
    outer loop
      vertex 215 1 3
      vertex 214 1 2
      vertex 209 1 3
    endloop
  endfacet
  facet normal 0 1 0
    outer loop
      vertex 209 1 1
      vertex 214 1 2
      vertex 214 1 1
    endloop
  endfacet
  facet normal 0 1 0
    outer loop
      vertex 214 1 2
      vertex 209 1 1
      vertex 209 1 3
    endloop
  endfacet
  facet normal -0 0 1
    outer loop
      vertex 214 5 2
      vertex 215 1 2
      vertex 215 5 2
    endloop
  endfacet
  facet normal 0 0 1
    outer loop
      vertex 215 1 2
      vertex 214 5 2
      vertex 214 1 2
    endloop
  endfacet
  facet normal 0 0 1
    outer loop
      vertex 1 64.9 4
      vertex 0 64.9 4
      vertex 1 1 4
    endloop
  endfacet
  facet normal 0 0 1
    outer loop
      vertex 206 64.9 4
      vertex 3 64.9 4
      vertex 206 1 4
    endloop
  endfacet
  facet normal 0 0 1
    outer loop
      vertex 208 1 4
      vertex 209 64.9 4
      vertex 208 64.9 4
    endloop
  endfacet
  facet normal 0 0 1
    outer loop
      vertex 209 64.9 4
      vertex 208 1 4
      vertex 209 0 4
    endloop
  endfacet
  facet normal -0 0 1
    outer loop
      vertex 206 1 4
      vertex 209 0 4
      vertex 208 1 4
    endloop
  endfacet
  facet normal 0 0 1
    outer loop
      vertex 3 1 4
      vertex 206 1 4
      vertex 3 64.9 4
    endloop
  endfacet
  facet normal 0 0 1
    outer loop
      vertex 206 1 4
      vertex 3 1 4
      vertex 209 0 4
    endloop
  endfacet
  facet normal 0 0 1
    outer loop
      vertex 0 0 4
      vertex 3 1 4
      vertex 1 1 4
    endloop
  endfacet
  facet normal 0 0 1
    outer loop
      vertex 3 1 4
      vertex 0 0 4
      vertex 209 0 4
    endloop
  endfacet
  facet normal 0 0 1
    outer loop
      vertex 0 0 4
      vertex 1 1 4
      vertex 0 64.9 4
    endloop
  endfacet
  facet normal 0 1 0
    outer loop
      vertex 209 64.9 4
      vertex 208 64.9 1
      vertex 208 64.9 4
    endloop
  endfacet
  facet normal 0 1 0
    outer loop
      vertex 209 64.9 0
      vertex 206 64.9 1
      vertex 208 64.9 1
    endloop
  endfacet
  facet normal 0 1 0
    outer loop
      vertex 206 64.9 1
      vertex 209 64.9 0
      vertex 3 64.9 1
    endloop
  endfacet
  facet normal 0 1 0
    outer loop
      vertex 0 64.9 0
      vertex 3 64.9 1
      vertex 209 64.9 0
    endloop
  endfacet
  facet normal 0 1 -0
    outer loop
      vertex 209 64.9 0
      vertex 208 64.9 1
      vertex 209 64.9 4
    endloop
  endfacet
  facet normal 0 1 -0
    outer loop
      vertex 206 64.9 1
      vertex 3 64.9 4
      vertex 206 64.9 4
    endloop
  endfacet
  facet normal 0 1 0
    outer loop
      vertex 3 64.9 4
      vertex 206 64.9 1
      vertex 3 64.9 1
    endloop
  endfacet
  facet normal 0 1 -0
    outer loop
      vertex 1 64.9 1
      vertex 0 64.9 4
      vertex 1 64.9 4
    endloop
  endfacet
  facet normal 0 1 0
    outer loop
      vertex 1 64.9 1
      vertex 0 64.9 0
      vertex 0 64.9 4
    endloop
  endfacet
  facet normal 0 1 0
    outer loop
      vertex 3 64.9 1
      vertex 0 64.9 0
      vertex 1 64.9 1
    endloop
  endfacet
  facet normal 1 0 0
    outer loop
      vertex 1 64.9 4
      vertex 1 4 3
      vertex 1 64.9 1
    endloop
  endfacet
  facet normal 1 -0 0
    outer loop
      vertex 1 1 4
      vertex 1 4 3
      vertex 1 64.9 4
    endloop
  endfacet
  facet normal 1 0 0
    outer loop
      vertex 1 4 3
      vertex 1 1 4
      vertex 1 2 3
    endloop
  endfacet
  facet normal 1 0 0
    outer loop
      vertex 1 1 1
      vertex 1 2 3
      vertex 1 1 4
    endloop
  endfacet
  facet normal 1 0 0
    outer loop
      vertex 1 2 3
      vertex 1 1 1
      vertex 1 2 1
    endloop
  endfacet
  facet normal 1 0 0
    outer loop
      vertex 1 64.9 1
      vertex 1 4 3
      vertex 1 4 1
    endloop
  endfacet
  facet normal -1 0 0
    outer loop
      vertex 3 1 1
      vertex 3 64.9 4
      vertex 3 64.9 1
    endloop
  endfacet
  facet normal -1 -0 0
    outer loop
      vertex 3 64.9 4
      vertex 3 1 1
      vertex 3 1 4
    endloop
  endfacet
  facet normal 0 1 -0
    outer loop
      vertex 3 1 1
      vertex 1 1 4
      vertex 3 1 4
    endloop
  endfacet
  facet normal 0 1 0
    outer loop
      vertex 1 1 4
      vertex 3 1 1
      vertex 1 1 1
    endloop
  endfacet
  facet normal 0 0 -1
    outer loop
      vertex 0 2 3
      vertex 1 4 3
      vertex 1 2 3
    endloop
  endfacet
  facet normal -0 0 -1
    outer loop
      vertex 1 4 3
      vertex 0 2 3
      vertex 0 4 3
    endloop
  endfacet
  facet normal 0 -1 0
    outer loop
      vertex 0 4 1
      vertex 1 4 3
      vertex 0 4 3
    endloop
  endfacet
  facet normal 0 -1 -0
    outer loop
      vertex 1 4 3
      vertex 0 4 1
      vertex 1 4 1
    endloop
  endfacet
  facet normal 0 1 -0
    outer loop
      vertex 1 2 1
      vertex 0 2 3
      vertex 1 2 3
    endloop
  endfacet
  facet normal 0 1 0
    outer loop
      vertex 0 2 3
      vertex 1 2 1
      vertex 0 2 1
    endloop
  endfacet
  facet normal 1 -0 0
    outer loop
      vertex 206 1 4
      vertex 206 64.9 1
      vertex 206 64.9 4
    endloop
  endfacet
  facet normal 1 0 0
    outer loop
      vertex 206 64.9 1
      vertex 206 1 4
      vertex 206 1 1
    endloop
  endfacet
  facet normal -1 0 0
    outer loop
      vertex 208 2 1
      vertex 208 1 1
      vertex 208 2 3
    endloop
  endfacet
  facet normal -1 0 0
    outer loop
      vertex 208 4 3
      vertex 208 64.9 1
      vertex 208 4 1
    endloop
  endfacet
  facet normal -1 0 0
    outer loop
      vertex 208 64.9 1
      vertex 208 4 3
      vertex 208 64.9 4
    endloop
  endfacet
  facet normal -1 0 0
    outer loop
      vertex 208 1 4
      vertex 208 4 3
      vertex 208 2 3
    endloop
  endfacet
  facet normal -1 0 0
    outer loop
      vertex 208 4 3
      vertex 208 1 4
      vertex 208 64.9 4
    endloop
  endfacet
  facet normal -1 0 0
    outer loop
      vertex 208 1 4
      vertex 208 2 3
      vertex 208 1 1
    endloop
  endfacet
  facet normal 0 1 -0
    outer loop
      vertex 208 1 1
      vertex 206 1 4
      vertex 208 1 4
    endloop
  endfacet
  facet normal 0 1 0
    outer loop
      vertex 206 1 4
      vertex 208 1 1
      vertex 206 1 1
    endloop
  endfacet
  facet normal 0 0 -1
    outer loop
      vertex 208 2 3
      vertex 209 4 3
      vertex 209 2 3
    endloop
  endfacet
  facet normal -0 0 -1
    outer loop
      vertex 209 4 3
      vertex 208 2 3
      vertex 208 4 3
    endloop
  endfacet
  facet normal 0 1 -0
    outer loop
      vertex 209 2 1
      vertex 208 2 3
      vertex 209 2 3
    endloop
  endfacet
  facet normal 0 1 0
    outer loop
      vertex 208 2 3
      vertex 209 2 1
      vertex 208 2 1
    endloop
  endfacet
  facet normal 0 -1 0
    outer loop
      vertex 208 4 1
      vertex 209 4 3
      vertex 208 4 3
    endloop
  endfacet
  facet normal 0 -1 -0
    outer loop
      vertex 209 4 3
      vertex 208 4 1
      vertex 209 4 1
    endloop
  endfacet
endsolid OpenSCAD_Model
